<svg width="64" height="64" viewBox="0 0 64 64" fill="none" xmlns="http://www.w3.org/2000/svg">
<g clip-path="url(#clip0_3_4)">
<path d="M54.404 9.30415C51.4699 6.34286 47.9757 3.99513 44.1252 2.39777C40.2747 0.800415 36.1447 -0.0146229 31.976 0.000151546C14.508 0.000151546 0.272 14.2322 0.256 31.7042C0.256 37.3002 1.72 42.7442 4.484 47.5642L0 64.0002L16.816 59.5922C21.468 62.1238 26.6797 63.4508 31.976 63.4522H31.992C49.464 63.4522 63.696 49.2202 63.712 31.7322C63.716 27.5643 62.8953 23.4369 61.2971 19.5877C59.6989 15.7384 57.3549 12.2435 54.4 9.30415H54.404ZM31.976 58.0842C27.252 58.0857 22.6148 56.8145 18.552 54.4042L17.592 53.8282L7.616 56.4442L10.28 46.7122L9.656 45.7082C7.01523 41.5095 5.61859 36.6483 5.628 31.6882C5.628 17.1842 17.456 5.35215 31.992 5.35215C35.455 5.34594 38.8849 6.02525 42.0841 7.35092C45.2833 8.67659 48.1884 10.6224 50.632 13.0762C53.0841 15.5203 55.0281 18.4259 56.3517 21.6251C57.6753 24.8243 58.3524 28.2539 58.344 31.7162C58.328 46.2721 46.5 58.0842 31.976 58.0842ZM46.436 38.3482C45.648 37.9522 41.756 36.0362 41.024 35.7642C40.296 35.5042 39.764 35.3682 39.244 36.1602C38.712 36.9482 37.192 38.7442 36.736 39.2602C36.28 39.7922 35.808 39.8521 35.016 39.4602C34.228 39.0602 31.672 38.2282 28.648 35.5202C26.288 33.4202 24.708 30.8202 24.236 30.0322C23.78 29.2402 24.192 28.8162 24.588 28.4202C24.936 28.0682 25.376 27.4921 25.772 27.0361C26.172 26.5802 26.304 26.2442 26.564 25.7162C26.824 25.1802 26.7 24.7241 26.504 24.3281C26.304 23.9321 24.724 20.0242 24.056 18.4482C23.416 16.8922 22.764 17.1082 22.276 17.0882C21.82 17.0602 21.288 17.0602 20.756 17.0602C20.3543 17.0701 19.9589 17.1631 19.5948 17.3331C19.2306 17.5031 18.9056 17.7465 18.64 18.0482C17.912 18.8402 15.876 20.7561 15.876 24.6642C15.876 28.5722 18.716 32.3282 19.116 32.8602C19.508 33.3922 24.692 41.3882 32.648 44.8282C34.528 45.6482 36.008 46.1322 37.164 46.5002C39.064 47.1082 40.78 47.0162 42.148 46.8202C43.668 46.5882 46.832 44.9002 47.5 43.0482C48.156 41.1922 48.156 39.6082 47.956 39.2762C47.76 38.9402 47.228 38.7442 46.436 38.3482Z" fill="#25D366"/>
</g>
<defs>
<clipPath id="clip0_3_4">
<rect width="64" height="64" fill="white"/>
</clipPath>
</defs>
</svg>